<!--?xml version="1.0" encoding="utf-8"?-->
<!-- Generator: Adobe Illustrator 22.0.1, SVG Export Plug-In . SVG Version: 6.00 Build 0)  -->
<svg version="1.1" id="Text_x5F_V2" xmlns="http://www.w3.org/2000/svg" xmlns:xlink="http://www.w3.org/1999/xlink" x="0px" y="0px" viewBox="0 0 935.4 226.8" style="" xml:space="preserve">
<style type="text/css">
	.st0{fill:none;stroke:#FFFFFF;stroke-width:5;stroke-miterlimit:10;}
</style>
<g>
	<path class="st0 TzUzqReU_0" d="M176.7,159.2l-14.2-55.6l-14.2,55.6h-21.9l-25.1-98.5h21.9l14.2,55.8l14.2-55.8h21.9l14.2,55.8l14.2-55.8h21.9
		l-25.1,98.5H176.7z"></path>
	<path class="st0 TzUzqReU_1" d="M242.2,60.6h64.2v19.8h-43V100h43v19.8h-43v19.6h43v19.8h-64.2V60.6z"></path>
	<path class="st0 TzUzqReU_2" d="M327.7,60.6h21.2v78.8h38.8v19.8h-60V60.6z"></path>
	<path class="st0 TzUzqReU_3" d="M455.2,60.6c7.1,0,13.8,1.2,20.1,3.6c6.3,2.4,11.8,5.8,16.6,10l-15,14c-2.8-2.5-6.1-4.5-9.8-5.9
		c-3.7-1.4-7.7-2.1-11.9-2.1c-4.4,0-8.5,0.8-12.4,2.3c-3.9,1.6-7.3,3.7-10.2,6.3c-2.9,2.6-5.2,5.8-6.9,9.4
		c-1.7,3.6-2.5,7.4-2.5,11.5c0,4.1,0.8,7.9,2.5,11.5c1.7,3.6,4,6.7,6.9,9.4c2.9,2.7,6.3,4.8,10.2,6.3c3.9,1.5,8,2.3,12.4,2.3
		c4.2,0,8.2-0.7,11.9-2.1c3.7-1.4,7-3.3,9.8-5.7l15,13.9c-4.8,4.2-10.3,7.6-16.6,10c-6.3,2.4-13,3.6-20.1,3.6
		c-7.3,0-14.2-1.3-20.6-3.9c-6.5-2.6-12.1-6.1-16.9-10.6c-4.8-4.5-8.6-9.7-11.4-15.7c-2.8-6-4.2-12.3-4.2-19.1
		c0-6.8,1.4-13.1,4.2-19.1s6.6-11.2,11.4-15.7c4.8-4.5,10.5-8,16.9-10.6C441,61.9,447.9,60.6,455.2,60.6z"></path>
	<path class="st0 TzUzqReU_4" d="M559.3,60.6c7.3,0,14.2,1.3,20.6,3.9c6.4,2.6,12.1,6.1,16.9,10.6c4.8,4.5,8.6,9.7,11.4,15.7s4.2,12.4,4.2,19.1
		c0,6.8-1.4,13.1-4.2,19.1c-2.8,6-6.6,11.2-11.4,15.7c-4.8,4.5-10.4,8-16.9,10.6c-6.5,2.6-13.3,3.9-20.6,3.9
		c-7.3,0-14.2-1.3-20.6-3.9c-6.5-2.6-12.1-6.1-16.9-10.6c-4.8-4.5-8.6-9.7-11.4-15.7c-2.8-6-4.2-12.3-4.2-19.1
		c0-6.8,1.4-13.1,4.2-19.1s6.6-11.2,11.4-15.7c4.8-4.5,10.4-8,16.9-10.6C545.2,61.9,552,60.6,559.3,60.6z M559.4,80.4
		c-4.4,0-8.5,0.8-12.4,2.3c-3.9,1.6-7.3,3.7-10.2,6.3c-2.9,2.6-5.2,5.8-6.9,9.3c-1.7,3.6-2.5,7.4-2.5,11.5c0,4.1,0.8,7.9,2.5,11.5
		s4,6.7,6.9,9.4c2.9,2.7,6.3,4.8,10.2,6.4c3.9,1.6,8,2.3,12.4,2.3c4.4,0,8.5-0.8,12.4-2.3c3.9-1.6,7.3-3.7,10.1-6.4
		c2.9-2.7,5.1-5.8,6.8-9.4c1.7-3.6,2.5-7.4,2.5-11.5c0-4.1-0.8-7.9-2.5-11.5c-1.7-3.6-4-6.7-6.8-9.3c-2.9-2.6-6.2-4.7-10.1-6.3
		C567.9,81.2,563.8,80.4,559.4,80.4z"></path>
	<path class="st0 TzUzqReU_5" d="M676.5,159.2l-21.3-49.3v49.3h-21.2V60.6h22.9l31.2,72l31-72h22.9v98.5h-21.2v-49.3l-21.3,49.3H676.5z"></path>
	<path class="st0 TzUzqReU_6" d="M763.3,61.6h64.2v19.8h-43V101h43v19.8h-43v19.6h43v19.8h-64.2V61.6z"></path>
</g>
<style data-made-with="vivus-instant">.TzUzqReU_0{stroke-dasharray:658 660;stroke-dashoffset:659;animation:TzUzqReU_draw 311ms linear 0ms forwards;}.TzUzqReU_1{stroke-dasharray:498 500;stroke-dashoffset:499;animation:TzUzqReU_draw 236ms linear 311ms forwards;}.TzUzqReU_2{stroke-dasharray:318 320;stroke-dashoffset:319;animation:TzUzqReU_draw 150ms linear 548ms forwards;}.TzUzqReU_3{stroke-dasharray:426 428;stroke-dashoffset:427;animation:TzUzqReU_draw 202ms linear 699ms forwards;}.TzUzqReU_4{stroke-dasharray:515 517;stroke-dashoffset:516;animation:TzUzqReU_draw 244ms linear 901ms forwards;}.TzUzqReU_5{stroke-dasharray:672 674;stroke-dashoffset:673;animation:TzUzqReU_draw 318ms linear 1145ms forwards;}.TzUzqReU_6{stroke-dasharray:498 500;stroke-dashoffset:499;animation:TzUzqReU_draw 236ms linear 1463ms forwards;}@keyframes TzUzqReU_draw{100%{stroke-dashoffset:0;}}@keyframes TzUzqReU_fade{0%{stroke-opacity:1;}93.22033898305085%{stroke-opacity:1;}100%{stroke-opacity:0;}}</style></svg>
